<svg width="36" height="36" viewBox="0 0 36 36" fill="none" xmlns="http://www.w3.org/2000/svg">
<path d="M33.662 0.0490066C32.514 -0.0279934 27.793 -0.700993 16.14 6.71401C4.488 14.129 -1.646 26.609 3.604 33.329C4.708 34.742 9.122 37.612 14.286 33.859C17.533 31.5 18.528 26.339 21.436 19.425C23.422 14.702 27.88 5.83101 34.104 1.81401C36.046 0.844007 34.324 0.0940066 33.662 0.0490066Z" fill="#5DADEC"/>
<path d="M16.625 13.651C16.36 12.592 17.596 9.37 17.949 8.487C11.512 11.416 5.44 20.103 5.479 21.667C5.485 21.894 5.618 21.972 5.899 21.86C11.297 19.694 14.781 22.93 15.706 25.611C15.801 25.885 15.92 26.025 16.045 26.051C16.216 26.087 16.397 25.901 16.539 25.494C18.565 19.675 23.112 9.055 27.835 5C25.187 6.28 17.729 11.797 16.625 13.651Z" fill="#8CCAF7"/>
<path d="M14.242 12.989C12.505 13.816 6.967 19.181 5.48 21.667C5.486 21.894 5.619 21.972 5.9 21.86C11.298 19.694 14.782 22.93 15.707 25.611C15.802 25.885 15.921 26.025 16.046 26.051C16.103 23.723 15.954 18.435 18.259 14.49C14.198 18.197 13.183 18.108 14.242 12.989Z" fill="#BDDDF4"/>
<path d="M8.725 23.663C8.02939 23.663 7.34059 23.8 6.69793 24.0662C6.05527 24.3324 5.47133 24.7226 4.97946 25.2144C4.48759 25.7063 4.09741 26.2903 3.83121 26.9329C3.56501 27.5756 3.428 28.2644 3.428 28.96C3.428 29.6556 3.56501 30.3444 3.83121 30.9871C4.09741 31.6297 4.48759 32.2137 4.97946 32.7055C5.47133 33.1974 6.05527 33.5876 6.69793 33.8538C7.34059 34.12 8.02939 34.257 8.725 34.257C10.1299 34.257 11.4772 33.6989 12.4705 32.7055C13.4639 31.7122 14.022 30.3648 14.022 28.96C14.022 27.5551 13.4639 26.2078 12.4705 25.2144C11.4772 24.2211 10.1299 23.663 8.725 23.663Z" fill="#F5F8FA"/>
</svg>
