<svg width="36" height="36" viewBox="0 0 36 36" fill="none" xmlns="http://www.w3.org/2000/svg">
<path d="M29.896 26.667C29.899 26.95 29.826 27.32 29.75 27.625C29.219 29.77 26.861 32.177 23.542 31.958C20.534 31.76 18.084 30.316 18.084 28.291C18.084 26.266 20.528 24.624 23.542 24.624C26.556 24.624 29.877 24.642 29.896 26.667Z" fill="#EA596E"/>
<path d="M23.542 24.964C21.923 24.964 18.228 25.412 17.38 25.412C15.882 25.412 14.667 26.352 14.667 27.512C14.667 28.07 14.953 28.574 15.411 28.95C15.411 28.95 16.417 29.959 18.229 29.475C19.022 29.263 20.312 27.689 22.583 27.439C23.714 27.314 25.833 28.189 29.557 28.21C29.717 27.866 29.75 27.627 29.75 27.627C29.75 25.6 26.556 24.964 23.542 24.964Z" fill="#DD2E44"/>
<path d="M29.75 27.625C29.75 27.625 31.934 27.182 33.292 25.396C34.875 23.313 34.667 21.084 34.667 21.084C36.271 18.084 34.167 15.271 34.167 15.271C33.958 12.104 32 10.792 32 10.792C30.729 7.771 27.917 6.959 27.917 6.959C25.709 4.376 21.792 4.459 21.792 4.459C21.792 4.459 18.122 3.114 13.084 4.626C12.251 4.876 9.459 5.459 7.417 6.709C0.981001 10.649 0.494001 16.793 0.584001 17.792C1.083 23.375 5 24.375 7.5 24.958C8.083 26.541 10.229 29.458 14.083 28.375C18.833 27.542 20.833 26.125 22 26.125C23.167 26.125 26.417 27.375 29.75 27.625Z" fill="#F4ABBA"/>
<path d="M17.737 18.648C20.065 17.393 21.327 17.51 22.441 17.611C22.795 17.643 23.13 17.668 23.469 17.666C25.453 17.621 27.06 16.785 27.771 15.976C27.8525 15.8755 27.892 15.7473 27.8811 15.6183C27.8702 15.4893 27.8099 15.3696 27.7126 15.2841C27.6154 15.1987 27.4889 15.1542 27.3596 15.1599C27.2303 15.1657 27.1082 15.2213 27.019 15.315C26.471 15.939 25.12 16.628 23.446 16.666C23.146 16.675 22.845 16.645 22.533 16.616C21.338 16.505 19.854 16.369 17.262 17.768C16.597 18.127 15.685 18.26 14.697 18.36C12.5 15.189 13.822 12.427 14.2 11.769C14.237 11.771 14.273 11.783 14.311 11.783C14.711 11.783 15.113 11.685 15.477 11.479C15.5879 11.4115 15.6682 11.3035 15.7009 11.1779C15.7336 11.0522 15.7161 10.9188 15.6522 10.8058C15.5883 10.6928 15.483 10.6091 15.3584 10.5724C15.2339 10.5356 15.1 10.5488 14.985 10.609C14.6704 10.7822 14.3021 10.8303 13.9535 10.7437C13.605 10.6571 13.302 10.4423 13.105 10.142C13.0306 10.0371 12.9187 9.96495 12.7926 9.94043C12.6664 9.9159 12.5356 9.94091 12.4274 10.0103C12.3191 10.0796 12.2418 10.188 12.2113 10.3129C12.1809 10.4378 12.1998 10.5696 12.264 10.681C12.501 11.052 12.835 11.331 13.212 11.518C12.691 12.576 11.702 15.358 13.584 18.469C12.26 18.599 10.934 18.786 9.896 19.455C9.16644 19.933 8.53005 20.5399 8.018 21.246C7.389 21.138 5.086 20.571 4.684 18.015C4.934 17.821 5.136 17.565 5.261 17.249C5.28516 17.1879 5.29706 17.1227 5.29602 17.057C5.29497 16.9914 5.28101 16.9266 5.25491 16.8663C5.22882 16.806 5.19111 16.7515 5.14394 16.7058C5.09677 16.6601 5.04107 16.6242 4.98 16.6C4.91894 16.5758 4.85371 16.5639 4.78805 16.565C4.72238 16.566 4.65757 16.58 4.5973 16.6061C4.53704 16.6322 4.4825 16.6699 4.43681 16.7171C4.39112 16.7642 4.35516 16.8199 4.331 16.881C4.29319 16.9861 4.23301 17.0818 4.15463 17.1614C4.07624 17.241 3.98152 17.3026 3.877 17.342C3.77108 17.3772 3.65883 17.3892 3.54787 17.3771C3.43691 17.365 3.32986 17.3292 3.234 17.272C3.17661 17.2401 3.1135 17.2198 3.04827 17.2123C2.98304 17.2048 2.91697 17.2102 2.85382 17.2282C2.7263 17.2646 2.61845 17.3501 2.554 17.466C2.48955 17.5819 2.47379 17.7187 2.51017 17.8462C2.54655 17.9737 2.6321 18.0816 2.748 18.146C3.032 18.304 3.336 18.384 3.638 18.384C3.675 18.384 3.71 18.367 3.747 18.365C4.223 20.778 6.13 21.838 7.479 22.159C7.30237 22.5349 7.19047 22.9379 7.148 23.351C7.13635 23.4831 7.17763 23.6144 7.26277 23.716C7.34791 23.8177 7.46993 23.8813 7.602 23.893L7.647 23.895C7.77198 23.895 7.89243 23.8482 7.9846 23.7638C8.07678 23.6794 8.134 23.5635 8.145 23.439C8.253 22.226 9.41 20.959 10.438 20.294C11.402 19.673 12.813 19.542 14.179 19.415C15.504 19.294 16.756 19.178 17.737 18.648ZM30.603 17.144C30.5715 17.2017 30.5516 17.2649 30.5446 17.3303C30.5375 17.3956 30.5434 17.4617 30.5619 17.5247C30.5804 17.5878 30.6111 17.6466 30.6523 17.6977C30.6935 17.7489 30.7444 17.7915 30.802 17.823C30.8597 17.8545 30.9229 17.8744 30.9883 17.8814C31.0536 17.8885 31.1197 17.8826 31.1827 17.8641C31.3101 17.8268 31.4174 17.7404 31.481 17.624C31.5 17.59 33.323 14.175 29.91 11.88C29.7999 11.806 29.665 11.7788 29.5348 11.8043C29.4047 11.8298 29.29 11.9059 29.216 12.016C29.142 12.1261 29.1148 12.261 29.1403 12.3912C29.1658 12.5213 29.2419 12.636 29.352 12.71C31.996 14.488 30.661 17.036 30.603 17.144ZM9.876 9.07C9.95537 9.07027 10.0336 9.05152 10.1043 9.01534C10.1749 8.97915 10.2359 8.92657 10.282 8.862C11.732 6.845 13.74 7.535 13.825 7.567C13.9482 7.60765 14.0823 7.59886 14.1991 7.54247C14.3159 7.48608 14.4062 7.38652 14.451 7.2648C14.4958 7.14307 14.4915 7.00871 14.439 6.89008C14.3866 6.77146 14.2902 6.67784 14.17 6.629C13.21 6.273 10.993 6.161 9.47 8.279C9.41654 8.3537 9.38469 8.44168 9.37794 8.53329C9.3712 8.6249 9.38982 8.7166 9.43177 8.79832C9.47371 8.88004 9.53736 8.94863 9.61573 8.99656C9.69409 9.04448 9.78414 9.06989 9.876 9.07ZM22.948 7.182C25.173 7.001 26.185 8.614 26.231 8.69C26.2982 8.80444 26.4082 8.88749 26.5366 8.92087C26.6002 8.9374 26.6665 8.94124 26.7316 8.93217C26.7967 8.9231 26.8593 8.90129 26.916 8.868C26.9727 8.83471 27.0222 8.79059 27.0618 8.73815C27.1014 8.68571 27.1303 8.62598 27.1469 8.56237C27.1634 8.49876 27.1672 8.43252 27.1582 8.36743C27.1491 8.30233 27.1273 8.23967 27.094 8.183C27.04 8.092 25.754 5.965 22.87 6.185C22.8045 6.19012 22.7407 6.20809 22.6822 6.23787C22.6237 6.26766 22.5716 6.30868 22.5289 6.35859C22.4428 6.45939 22.4002 6.59029 22.4105 6.7225C22.4208 6.85471 22.4833 6.9774 22.5841 7.06357C22.6849 7.14975 22.8158 7.19235 22.948 7.182ZM32.098 21.793C31.852 21.779 31.581 21.974 31.559 22.25C31.557 22.268 31.398 23.969 29.649 24.544C29.5346 24.5799 29.437 24.6558 29.374 24.7578C29.311 24.8598 29.2869 24.981 29.3059 25.0994C29.325 25.2177 29.386 25.3253 29.4778 25.4023C29.5697 25.4794 29.6861 25.5208 29.806 25.519C29.859 25.519 29.9117 25.5106 29.962 25.494C32.334 24.716 32.548 22.43 32.556 22.333C32.5665 22.2007 32.5242 22.0697 32.4384 21.9685C32.3526 21.8673 32.2302 21.8042 32.098 21.793Z" fill="#EA596E"/>
<path d="M7.347 16.934C7.32733 16.9982 7.32078 17.0656 7.32773 17.1324C7.33469 17.1991 7.355 17.2638 7.38747 17.3225C7.41994 17.3812 7.4639 17.4328 7.51673 17.4742C7.56956 17.5156 7.63017 17.5459 7.69497 17.5633C7.75976 17.5808 7.8274 17.585 7.89387 17.5758C7.96033 17.5666 8.02426 17.544 8.08184 17.5096C8.13941 17.4751 8.18946 17.4294 8.22901 17.3752C8.26855 17.321 8.29678 17.2594 8.312 17.194C8.40828 16.8475 8.63217 16.5503 8.93865 16.3622C9.24513 16.1741 9.61147 16.109 9.964 16.18C10.0283 16.1935 10.0946 16.1941 10.1591 16.182C10.2237 16.1698 10.2852 16.145 10.3402 16.1091C10.3951 16.0732 10.4425 16.0268 10.4795 15.9725C10.5166 15.9183 10.5425 15.8573 10.556 15.793C10.5695 15.7287 10.5701 15.6624 10.558 15.5979C10.5458 15.5333 10.521 15.4718 10.4851 15.4169C10.4492 15.3619 10.4028 15.3145 10.3485 15.2775C10.2943 15.2405 10.2333 15.2145 10.169 15.201C9.75286 15.1166 9.32163 15.1463 8.921 15.287C7.755 13.293 7.982 11.327 7.985 11.306C8.00208 11.1747 7.96657 11.0419 7.88622 10.9367C7.80587 10.8314 7.68718 10.7622 7.556 10.744C7.42503 10.7272 7.29268 10.7625 7.18753 10.8424C7.08239 10.9223 7.01287 11.0403 6.994 11.171C6.981 11.268 6.714 13.487 8.057 15.785C7.71416 16.0913 7.46753 16.4904 7.347 16.934ZM18.526 14.464C18.7256 14.2824 18.9866 14.183 19.2564 14.1857C19.5263 14.1885 19.7852 14.2933 19.981 14.479C20.0765 14.5708 20.2043 14.6212 20.3368 14.6191C20.4692 14.617 20.5954 14.5627 20.688 14.468C20.7804 14.3729 20.8313 14.245 20.8294 14.1124C20.8275 13.9798 20.7731 13.8534 20.678 13.761C20.4521 13.5461 20.1792 13.3869 19.881 13.296C20.177 12.28 20.06 11.829 19.785 10.984C19.7306 10.8187 19.6782 10.6527 19.628 10.486L19.598 10.386C19.234 9.178 18.993 8.381 19.685 7.256C19.7545 7.14302 19.7762 7.00706 19.7455 6.87804C19.7147 6.74901 19.634 6.63749 19.521 6.568C19.408 6.49852 19.2721 6.47676 19.143 6.50751C19.014 6.53827 18.9025 6.61902 18.833 6.732C17.905 8.24 18.246 9.369 18.641 10.676L18.671 10.776C18.73 10.97 18.784 11.14 18.834 11.293C19.081 12.054 19.156 12.309 18.854 13.229C18.4763 13.2977 18.126 13.4725 17.844 13.733C17.7505 13.8243 17.6965 13.9485 17.6934 14.0791C17.6904 14.2097 17.7386 14.3363 17.8277 14.4319C17.9168 14.5274 18.0398 14.5842 18.1703 14.5902C18.3008 14.5962 18.4285 14.5509 18.526 14.464ZM24.891 11.479C25.188 11.4799 25.4814 11.4147 25.75 11.288C25.87 11.2315 25.9627 11.1297 26.0076 11.0049C26.0525 10.88 26.046 10.7425 25.9895 10.6225C25.933 10.5025 25.8312 10.4098 25.7064 10.3649C25.5815 10.32 25.444 10.3265 25.324 10.383C25.0782 10.4953 24.799 10.5106 24.5424 10.4259C24.2858 10.3412 24.0706 10.1626 23.94 9.926C23.9103 9.86592 23.8688 9.81243 23.818 9.76871C23.7672 9.72499 23.7081 9.69193 23.6443 9.67149C23.5804 9.65106 23.5131 9.64366 23.4464 9.64976C23.3796 9.65585 23.3148 9.6753 23.2557 9.70695C23.1966 9.73861 23.1445 9.78182 23.1025 9.83402C23.0604 9.88621 23.0293 9.94633 23.0109 10.0108C22.9926 10.0753 22.9874 10.1428 22.9956 10.2093C23.0039 10.2758 23.0254 10.34 23.059 10.398C23.239 10.734 23.507 10.999 23.819 11.183C23.282 12.488 23.587 13.874 23.836 14.609C23.855 14.6735 23.8869 14.7335 23.9297 14.7854C23.9724 14.8373 24.0252 14.88 24.0849 14.9111C24.1446 14.9421 24.2099 14.9607 24.277 14.9659C24.344 14.9711 24.4114 14.9627 24.4751 14.9413C24.5389 14.9198 24.5976 14.8857 24.6479 14.841C24.6981 14.7963 24.7388 14.7419 24.7676 14.6811C24.7963 14.6203 24.8125 14.5543 24.8151 14.4871C24.8178 14.4199 24.8069 14.3529 24.783 14.29C24.615 13.792 24.289 12.534 24.781 11.464C24.819 11.466 24.854 11.479 24.891 11.479ZM29.688 20.908C29.6842 20.8423 29.6674 20.7781 29.6386 20.719C29.6097 20.6598 29.5694 20.607 29.5201 20.5636C29.4707 20.5201 29.4131 20.4869 29.3508 20.4659C29.2885 20.4449 29.2226 20.4364 29.157 20.441C28.9172 20.4576 28.6765 20.4266 28.4488 20.3499C28.221 20.2732 28.0106 20.1523 27.8297 19.994C27.6488 19.8358 27.5009 19.6434 27.3946 19.4278C27.2882 19.2123 27.2255 18.9779 27.21 18.738C27.1988 18.6065 27.1369 18.4845 27.0375 18.3978C26.938 18.311 26.8088 18.2663 26.677 18.273C26.5448 18.2825 26.4218 18.3439 26.3347 18.4437C26.2476 18.5435 26.2035 18.6738 26.212 18.806C26.253 19.396 26.478 19.928 26.82 20.361C26.016 21.307 24.963 21.576 24.376 21.645C23.857 21.707 23.403 21.654 22.878 21.592C22.397 21.537 21.853 21.474 21.18 21.494L21.175 21.495C21.155 21.209 21.087 20.792 20.87 20.445C20.7954 20.3422 20.6846 20.2717 20.5599 20.2475C20.4352 20.2233 20.3061 20.2474 20.1985 20.3149C20.0909 20.3823 20.0129 20.4881 19.9803 20.6108C19.9478 20.7336 19.963 20.8641 20.023 20.976C20.157 21.191 20.182 21.534 20.182 21.701C19.678 21.882 19.242 22.148 18.848 22.405C18.144 22.863 17.589 23.225 16.754 23.037C15.998 22.864 15.241 22.829 14.599 22.919C14.499 22.668 14.341 22.368 14.097 22.137C14.0006 22.0459 13.8719 21.9968 13.7394 22.0006C13.6068 22.0043 13.4811 22.0606 13.39 22.157C13.2989 22.2534 13.2498 22.3821 13.2536 22.5146C13.2573 22.6472 13.3136 22.7729 13.41 22.864C13.496 22.945 13.564 23.063 13.619 23.181C12.516 23.635 11.963 24.394 11.937 24.431C11.884 24.5057 11.8525 24.5935 11.846 24.6849C11.8396 24.7762 11.8584 24.8676 11.9004 24.949C11.9425 25.0304 12.0061 25.0986 12.0843 25.1462C12.1626 25.1939 12.2524 25.219 12.344 25.219C12.423 25.2192 12.501 25.2007 12.5715 25.1651C12.6421 25.1295 12.7032 25.0777 12.75 25.014C12.755 25.006 13.304 24.271 14.387 23.974C14.947 23.82 15.75 23.833 16.533 24.011C16.752 24.061 16.955 24.078 17.152 24.081C17.245 24.299 17.281 24.558 17.286 24.654C17.2934 24.7814 17.3491 24.9013 17.4419 24.989C17.5346 25.0767 17.6573 25.1257 17.785 25.126L17.812 25.125C17.9439 25.118 18.0678 25.0591 18.1564 24.9611C18.245 24.8631 18.2913 24.734 18.285 24.602C18.2683 24.3691 18.2247 24.1389 18.155 23.916C18.616 23.749 19.017 23.488 19.394 23.243C19.966 22.87 20.507 22.517 21.214 22.494C21.806 22.473 22.294 22.53 22.765 22.585C23.239 22.64 23.705 22.676 24.219 22.646C24.31 22.899 24.303 23.237 24.289 23.35C24.2805 23.4204 24.2871 23.4918 24.3081 23.5595C24.3292 23.6272 24.3644 23.6897 24.4113 23.7429C24.4583 23.7961 24.5159 23.8387 24.5805 23.868C24.645 23.8973 24.7151 23.9127 24.786 23.913C24.9072 23.9128 25.0242 23.8686 25.1153 23.7886C25.2064 23.7086 25.2652 23.5982 25.281 23.478C25.3176 23.15 25.2977 22.8182 25.222 22.497C26.1344 22.2549 26.952 21.7421 27.567 21.026C28.0628 21.3322 28.6415 21.4766 29.223 21.439C29.2884 21.4347 29.3523 21.4175 29.4111 21.3885C29.4698 21.3595 29.5223 21.3191 29.5655 21.2698C29.6087 21.2205 29.6417 21.1632 29.6627 21.1011C29.6838 21.039 29.6923 20.9734 29.688 20.908Z" fill="#EA596E"/>
</svg>
