<svg width="36" height="36" viewBox="0 0 36 36" fill="none" xmlns="http://www.w3.org/2000/svg">
<path d="M31.0612 17.4656C30.6366 15.7444 29.4103 14.6419 27.8944 13.8656C28.2403 11.9475 28.5806 8.62875 28.5497 7.66407C28.5131 6.52782 28.3866 5.0175 26.0466 4.76719C24.5222 4.60407 23.2706 5.18344 23.0991 7.12969C23.0344 7.85532 22.9866 8.60625 22.9528 9.34032L22.1034 9.07875C22.1203 8.40094 22.1316 7.785 22.1372 7.31813C22.1597 5.34657 21.1078 4.23281 19.0237 4.23844C17.1984 4.24406 16.335 5.82188 16.2703 6.96657C16.2366 7.57125 16.335 9.28125 16.4953 10.9575L16.1353 11.1319L16.0284 11.2078C15.8625 10.1503 15.6909 9.135 15.5616 8.42063C15.2184 6.49688 13.9387 5.58282 12.42 5.79938C10.575 6.06094 10.0744 7.7175 10.1109 8.85375C10.1391 9.70313 10.6087 12.7013 11.0391 14.6981L10.4766 15.0919C10.4541 14.9484 10.4316 14.7994 10.4062 14.6475C10.4034 14.6222 10.3978 14.5969 10.395 14.5716C10.3725 14.4394 10.3528 14.3044 10.3275 14.1666C10.3219 14.1356 10.3162 14.1047 10.3134 14.0738C10.2881 13.9163 10.26 13.7559 10.2319 13.5956C10.2319 13.59 10.2291 13.5844 10.2291 13.5759C10.2009 13.4044 10.17 13.2328 10.1391 13.0613L10.1222 12.9628C10.0997 12.8278 10.0744 12.6956 10.0519 12.5634C10.0434 12.51 10.0322 12.4566 10.0237 12.4059C10.0041 12.2934 9.98156 12.1809 9.96187 12.0684C9.95062 12.0122 9.93937 11.9531 9.93094 11.8969C9.91125 11.7872 9.88875 11.6775 9.86906 11.5706C9.85781 11.52 9.84937 11.4666 9.83812 11.4159C9.80719 11.2613 9.77625 11.1094 9.74531 10.9631C9.37969 9.20532 8.57813 8.53875 7.18313 8.75532C5.22844 9.06188 4.79813 11.0306 4.89375 12.0713C4.98938 13.1147 5.72063 16.6388 6.22125 17.7891C6.255 17.8622 6.29156 17.9325 6.33094 17.9972L5.75156 18.4022C6.11156 23.5744 8.27156 27.2897 8.27156 27.2897C9.98438 30.3272 11.2978 30.8306 13.3791 31.3313C15.7472 31.8994 18.5541 31.7531 19.0012 31.7363C23.7178 31.545 26.7637 30.4903 29.2894 26.6738C29.8969 25.7541 30.9656 24.4069 31.3031 21.4256C31.4297 20.2641 31.3425 18.6131 31.0612 17.4656Z" fill="#FAC036"/>
<path d="M23.2172 13.1681C23.2172 13.1681 25.5881 13.1203 27.8859 13.8628L28.0294 13.0359C28.0294 13.0359 26.3953 12.4481 23.9766 12.2513C23.5828 12.2203 23.2312 12.2063 22.8825 12.2063L22.9275 11.4666L23.1947 6.52782C23.1947 6.52782 23.1216 6.89907 22.5703 6.89907C22.3397 6.89907 22.185 6.76125 22.0978 6.65438C22.1259 6.86532 22.14 7.0875 22.1372 7.32094L22.0191 12.2259C21.8812 12.2316 21.7434 12.24 21.5972 12.2484C19.5947 12.3694 17.6709 12.8363 16.9397 13.9641C16.4953 10.2572 16.2703 6.97219 16.2703 6.97219C16.0087 7.61344 15.2212 7.34344 15.2212 7.34344C15.9075 9.83532 16.2703 15.8878 16.2703 15.8878C16.4981 18.4388 14.7741 18.7875 14.7741 18.7875C12.6928 19.2628 11.7366 16.9959 11.7366 16.9959C11.5594 16.6978 11.0166 13.9894 10.6453 12.0656L10.2797 10.1363L10.1784 9.59344C10.1869 9.65251 10.1981 9.88313 9.81843 9.97032C9.63562 10.0125 9.50343 9.97313 9.42187 9.93376C9.55125 10.2234 9.65812 10.5638 9.7425 10.9631C9.93375 11.8744 10.3809 14.6194 10.4231 14.8331L10.5187 15.5222C10.8225 17.8031 10.4147 18.3544 10.4147 18.3544C9.74812 19.6228 8.13375 19.26 8.13375 19.26C6.58406 18.99 6.09187 17.2716 6.09187 17.2716C5.88937 16.6191 5.05125 13.1456 5.05125 13.1456L5.74875 18.4078C5.86968 18.7819 6.03281 18.9197 6.19875 19.1222C7.7175 20.97 9.78468 20.1881 9.78468 20.1881C10.5806 19.8984 10.9294 19.2966 10.9294 19.2966C11.1516 18.9338 11.2669 18.5231 11.3119 18.1041C12.4537 20.2556 14.7516 19.9069 14.7516 19.9069C16.1691 19.6256 16.7625 18.6019 17.0128 17.7919C17.0719 17.865 17.1281 17.9381 17.1956 18.0113C17.1956 18.0113 18.1097 19.3866 22.0078 18.8803C23.3156 18.7088 23.5012 18.7284 24.3281 18.8691C24.3281 18.8691 26.1 19.3584 25.5375 20.8294C25.5375 20.8294 25.4081 21.3244 24.8006 22.095C24.8006 22.095 24.3197 22.7166 25.0791 22.7025C25.3069 22.6969 25.7175 22.5394 26.0803 22.2244C26.0803 22.2244 26.4656 21.9066 26.6794 21.1106C26.6794 21.1106 27.4978 19.0547 25.4334 18.0338C24.3534 17.4994 23.6334 17.6063 22.5394 17.7694C22.5394 17.7694 19.0575 18.0984 17.9353 17.1872C17.9353 17.1872 16.9031 16.29 17.5331 14.8528C17.5359 14.8331 18.6075 12.8784 23.2172 13.1681Z" fill="#E48C15"/>
</svg>
